<svg width="450" height="240" viewBox="0 0 450 240" fill="none" xmlns="http://www.w3.org/2000/svg">
<rect width="450" height="115" rx="4" fill="#F4F4F4"/>
<path d="M148.009 34.146V34.92C148.009 35.616 147.883 36.204 147.631 36.684C147.379 37.152 147.007 37.512 146.515 37.764C146.023 38.004 145.483 38.172 144.895 38.268C144.319 38.376 143.629 38.43 142.825 38.43C141.709 38.43 140.329 38.322 138.685 38.106V35.964C140.677 36.276 142.069 36.432 142.861 36.432C144.421 36.432 145.201 36.03 145.201 35.226V34.47C145.201 34.122 145.099 33.84 144.895 33.624C144.691 33.396 144.283 33.282 143.671 33.282H142.303C139.735 33.282 138.451 32.262 138.451 30.222V29.358C138.451 28.35 138.871 27.606 139.711 27.126C140.563 26.634 141.919 26.388 143.779 26.388C144.679 26.388 145.897 26.466 147.433 26.622V28.71C145.609 28.494 144.361 28.386 143.689 28.386C142.765 28.386 142.129 28.464 141.781 28.62C141.433 28.776 141.259 29.04 141.259 29.412V30.24C141.259 30.852 141.775 31.158 142.807 31.158H144.211C145.579 31.158 146.551 31.41 147.127 31.914C147.715 32.418 148.009 33.162 148.009 34.146ZM158.155 28.566H154.573V38.25H151.765V28.566H148.165V26.568H158.155V28.566ZM168.86 28.566H165.278V38.25H162.47V28.566H158.87V26.568H168.86V28.566Z" fill="#2A2D31"/>
<g clip-path="url(#clip0_0_1)">
<path d="M217.675 17.25H198.325C195.66 17.25 193.5 19.4101 193.5 22.0748V41.4252C193.5 44.0899 195.66 46.25 198.325 46.25H217.675C220.34 46.25 222.5 44.0899 222.5 41.4252V22.0748C222.5 19.4101 220.34 17.25 217.675 17.25Z" fill="#6E6E6F"/>
<path d="M199 30.25V33.25" stroke="white" stroke-width="1.5" stroke-linecap="round" stroke-linejoin="round"/>
<path d="M202.6 27.75V35.75" stroke="white" stroke-width="1.5" stroke-linecap="round" stroke-linejoin="round"/>
<path d="M206.2 22.75V40.75" stroke="white" stroke-width="1.5" stroke-linecap="round" stroke-linejoin="round"/>
<path d="M209.8 27.75V35.75" stroke="white" stroke-width="1.5" stroke-linecap="round" stroke-linejoin="round"/>
<path d="M213.4 24.75L213.4 38.75" stroke="white" stroke-width="1.5" stroke-linecap="round" stroke-linejoin="round"/>
<path d="M217 30.25V33.25" stroke="white" stroke-width="1.5" stroke-linecap="round" stroke-linejoin="round"/>
</g>
<g clip-path="url(#clip1_0_1)">
<path d="M250.675 17.25H231.325C228.66 17.25 226.5 19.4101 226.5 22.0748V41.4252C226.5 44.0899 228.66 46.25 231.325 46.25H250.675C253.34 46.25 255.5 44.0899 255.5 41.4252V22.0748C255.5 19.4101 253.34 17.25 250.675 17.25Z" fill="#6E6E6F"/>
<path d="M244.157 25.25C244.157 23.317 242.59 21.75 240.657 21.75C238.724 21.75 237.157 23.317 237.157 25.25V30.75C237.157 32.683 238.724 34.25 240.657 34.25C242.59 34.25 244.157 32.683 244.157 30.75V25.25Z" stroke="white" stroke-width="1.5" stroke-linejoin="round"/>
<path d="M233.157 30.25C233.157 34.392 236.515 37.75 240.657 37.75M240.657 37.75C244.799 37.75 248.157 34.392 248.157 30.25M240.657 37.75V40.75" stroke="white" stroke-width="1.5" stroke-linecap="round" stroke-linejoin="round"/>
<path d="M237.657 41L243.657 41" stroke="white" stroke-width="1.5" stroke-linecap="round"/>
</g>
<path d="M279.5 31.75L274.5 28.8632L274.5 34.6368L279.5 31.75ZM275 31.25L259.5 31.25L259.5 32.25L275 32.25L275 31.25Z" fill="#A4A4A4"/>
<g clip-path="url(#clip2_0_1)">
<path d="M307.675 17.25H288.325C285.66 17.25 283.5 19.4101 283.5 22.0748V41.4252C283.5 44.0899 285.66 46.25 288.325 46.25H307.675C310.34 46.25 312.5 44.0899 312.5 41.4252V22.0748C312.5 19.4101 310.34 17.25 307.675 17.25Z" fill="#6E6E6F"/>
<path d="M293.5 27.4549V26.6367C293.5 26.0844 293.948 25.6367 294.5 25.6367H300.5C301.052 25.6367 301.5 26.0844 301.5 26.6367V27.4549" stroke="white" stroke-width="1.5" stroke-linecap="round"/>
<path d="M297.5 26L297.5 34" stroke="white" stroke-width="1.5" stroke-linecap="round"/>
<path d="M296 34L299 34" stroke="white" stroke-width="1.5" stroke-linecap="round"/>
<path d="M292.5 36.5H302.5" stroke="white" stroke-width="1.5" stroke-linecap="round"/>
<path d="M292.5 39H302.5" stroke="white" stroke-width="1.5" stroke-linecap="round"/>
<rect x="289.5" y="22" width="16" height="20" rx="1" stroke="white" stroke-width="1.5" stroke-linecap="round"/>
</g>
<rect x="10.5" y="62" width="429" height="42.5" rx="3.5" fill="white"/>
<rect x="10.5" y="62" width="429" height="42.5" rx="3.5" stroke="#ECECEC"/>
<path d="M152.102 78.366L148.758 88.75H146.95L144.47 80.11L141.926 88.75H140.118L136.87 78.366H138.518L141.094 87.278H141.126L143.702 78.366H145.35L147.926 87.278H147.958L150.534 78.366H152.102ZM160.147 88.75H158.707V83.166C158.707 82.974 158.691 82.814 158.659 82.686C158.627 82.558 158.557 82.43 158.451 82.302C158.355 82.1633 158.184 82.062 157.939 81.998C157.704 81.9233 157.405 81.886 157.043 81.886C156.157 81.886 155.581 81.982 155.315 82.174C155.048 82.366 154.915 82.6967 154.915 83.166V88.75H153.475V77.55H154.915V81.95C155.064 81.214 155.912 80.846 157.459 80.846C158.483 80.846 159.187 81.0327 159.571 81.406C159.955 81.7687 160.147 82.3233 160.147 83.07V88.75ZM164.086 79.71H162.646V78.206H164.086V79.71ZM164.086 88.75H162.646V81.006H164.086V88.75ZM172.328 86.03V86.702C172.328 87.534 172.035 88.11 171.448 88.43C170.872 88.75 170.04 88.91 168.952 88.91C168.12 88.91 167.235 88.846 166.296 88.718V87.614C167.576 87.8167 168.472 87.918 168.984 87.918C169.624 87.918 170.104 87.8593 170.424 87.742C170.744 87.614 170.904 87.358 170.904 86.974V86.19C170.904 85.8593 170.792 85.6247 170.568 85.486C170.344 85.3473 169.981 85.278 169.48 85.278H168.6C167.789 85.278 167.176 85.1127 166.76 84.782C166.344 84.4407 166.136 83.9767 166.136 83.39V82.67C166.136 81.454 167.288 80.846 169.592 80.846C169.848 80.846 170.632 80.8887 171.944 80.974V82.014C171.027 81.8647 170.221 81.79 169.528 81.79C168.76 81.79 168.237 81.8647 167.96 82.014C167.693 82.1633 167.56 82.414 167.56 82.766V83.422C167.56 83.9447 168.035 84.206 168.984 84.206H169.88C171.512 84.206 172.328 84.814 172.328 86.03ZM181.374 86.222C181.374 86.6913 181.305 87.0967 181.166 87.438C181.028 87.7793 180.852 88.046 180.638 88.238C180.436 88.4193 180.164 88.5633 179.822 88.67C179.481 88.7767 179.161 88.8407 178.862 88.862C178.564 88.894 178.201 88.91 177.774 88.91C177.348 88.91 176.932 88.8567 176.526 88.75C176.121 88.6433 175.865 88.478 175.758 88.254V92.078H174.318V81.006H175.742V81.838H175.758C175.876 81.1767 176.756 80.846 178.398 80.846C179.433 80.846 180.185 81.0647 180.654 81.502C181.134 81.9287 181.374 82.4407 181.374 83.038V86.222ZM179.902 86.398V83.55C179.902 82.8353 179.748 82.382 179.438 82.19C179.129 81.9873 178.58 81.886 177.79 81.886C177.001 81.886 176.462 81.982 176.174 82.174C175.897 82.366 175.758 82.8247 175.758 83.55V86.398C175.758 87.0487 175.902 87.47 176.19 87.662C176.489 87.8433 177.028 87.934 177.806 87.934C178.596 87.934 179.14 87.8433 179.438 87.662C179.748 87.47 179.902 87.0487 179.902 86.398ZM189.952 85.198H184.752V86.366C184.752 86.91 184.944 87.2993 185.328 87.534C185.712 87.758 186.283 87.87 187.04 87.87C187.776 87.87 188.645 87.742 189.648 87.486V88.59C188.688 88.8033 187.755 88.91 186.848 88.91C184.48 88.91 183.296 88.1207 183.296 86.542V83.486C183.296 82.5367 183.568 81.8593 184.112 81.454C184.656 81.0487 185.525 80.846 186.72 80.846C187.84 80.846 188.656 81.0433 189.168 81.438C189.691 81.822 189.952 82.5047 189.952 83.486V85.198ZM188.512 84.254V83.038C188.512 82.5687 188.368 82.2487 188.08 82.078C187.792 81.8967 187.312 81.806 186.64 81.806C186 81.806 185.525 81.8913 185.216 82.062C184.907 82.2327 184.752 82.558 184.752 83.038V84.254H188.512ZM196.322 82.078H195.522C194.861 82.078 194.37 82.1633 194.05 82.334C193.741 82.5047 193.586 82.8247 193.586 83.294V88.75H192.146V81.006H193.506V82.27C193.506 81.8967 193.736 81.566 194.194 81.278C194.664 80.99 195.138 80.846 195.618 80.846H196.322V82.078ZM201.596 84.75H197.148V83.598H201.596V84.75ZM210.242 88.75H203.586V78.366H205.138V87.662H210.242V88.75ZM217.915 88.75H216.523V88.014C216.405 88.6113 215.627 88.91 214.187 88.91C213.12 88.91 212.379 88.75 211.963 88.43C211.557 88.0993 211.355 87.438 211.355 86.446C211.355 85.582 211.547 84.99 211.931 84.67C212.315 84.3393 213.056 84.174 214.155 84.174H216.475V82.942C216.475 82.5153 216.341 82.2273 216.075 82.078C215.819 81.9287 215.328 81.854 214.603 81.854C213.813 81.854 212.928 81.918 211.947 82.046V80.99C213.003 80.894 213.957 80.846 214.811 80.846C216.112 80.846 216.955 81.006 217.339 81.326C217.723 81.6353 217.915 82.286 217.915 83.278V88.75ZM216.475 87.182V85.07H214.251C213.589 85.07 213.173 85.1553 213.003 85.326C212.843 85.4967 212.763 85.886 212.763 86.494C212.763 87.038 212.848 87.422 213.019 87.646C213.2 87.8593 213.573 87.966 214.139 87.966H214.427C214.704 87.966 214.933 87.9607 215.115 87.95C215.307 87.9393 215.52 87.9127 215.755 87.87C215.989 87.8167 216.165 87.7367 216.283 87.63C216.411 87.5127 216.475 87.3633 216.475 87.182ZM224.588 82.078H223.788C223.127 82.078 222.636 82.1633 222.316 82.334C222.007 82.5047 221.852 82.8247 221.852 83.294V88.75H220.412V81.006H221.772V82.27C221.772 81.8967 222.001 81.566 222.46 81.278C222.929 80.99 223.404 80.846 223.884 80.846H224.588V82.078ZM232.629 81.006V89.486C232.629 90.5847 232.32 91.3207 231.701 91.694C231.093 92.078 230.176 92.27 228.949 92.27C227.851 92.27 226.96 92.2113 226.277 92.094V91.07C227.504 91.2193 228.437 91.294 229.077 91.294C229.813 91.294 230.347 91.1767 230.677 90.942C231.019 90.7073 231.189 90.318 231.189 89.774V87.918C231.168 88.2807 230.917 88.5367 230.437 88.686C229.968 88.8353 229.429 88.91 228.821 88.91C227.627 88.91 226.811 88.734 226.373 88.382C225.947 88.03 225.733 87.422 225.733 86.558V83.406C225.733 82.4887 225.979 81.8327 226.469 81.438C226.971 81.0433 227.787 80.846 228.917 80.846C230.261 80.846 231.051 81.15 231.285 81.758V81.006H232.629ZM231.189 86.654V83.15C231.189 82.6487 231.051 82.3073 230.773 82.126C230.507 81.934 229.947 81.838 229.093 81.838C228.293 81.838 227.771 81.9287 227.525 82.11C227.28 82.2913 227.157 82.638 227.157 83.15V86.654C227.157 87.1873 227.285 87.5393 227.541 87.71C227.808 87.87 228.336 87.95 229.125 87.95C229.851 87.95 230.373 87.8647 230.693 87.694C231.024 87.5127 231.189 87.166 231.189 86.654ZM241.499 85.198H236.299V86.366C236.299 86.91 236.491 87.2993 236.875 87.534C237.259 87.758 237.829 87.87 238.587 87.87C239.323 87.87 240.192 87.742 241.195 87.486V88.59C240.235 88.8033 239.301 88.91 238.395 88.91C236.027 88.91 234.843 88.1207 234.843 86.542V83.486C234.843 82.5367 235.115 81.8593 235.659 81.454C236.203 81.0487 237.072 80.846 238.267 80.846C239.387 80.846 240.203 81.0433 240.715 81.438C241.237 81.822 241.499 82.5047 241.499 83.486V85.198ZM240.059 84.254V83.038C240.059 82.5687 239.915 82.2487 239.627 82.078C239.339 81.8967 238.859 81.806 238.187 81.806C237.547 81.806 237.072 81.8913 236.763 82.062C236.453 82.2327 236.299 82.558 236.299 83.038V84.254H240.059ZM247.533 84.75H243.085V83.598H247.533V84.75ZM258.372 78.366L254.244 88.75H252.452L248.42 78.366H250.036L253.364 87.278H253.508L256.836 78.366H258.372ZM266.665 84.606V86.686C266.665 87.07 266.58 87.406 266.409 87.694C266.249 87.9713 266.052 88.19 265.817 88.35C265.583 88.4993 265.284 88.622 264.921 88.718C264.559 88.8033 264.223 88.8567 263.913 88.878C263.615 88.8993 263.268 88.91 262.873 88.91C262.009 88.91 261.001 88.8087 259.849 88.606V87.454C261.14 87.7207 262.201 87.854 263.033 87.854C264.452 87.854 265.161 87.454 265.161 86.654V84.878C265.161 84.654 265.097 84.4727 264.969 84.334C264.852 84.1847 264.676 84.0833 264.441 84.03C264.217 83.966 264.015 83.9287 263.833 83.918C263.652 83.8967 263.433 83.886 263.177 83.886H261.177V82.894H262.905C263.161 82.894 263.375 82.8887 263.545 82.878C263.727 82.8567 263.935 82.8193 264.169 82.766C264.404 82.702 264.585 82.5953 264.713 82.446C264.841 82.2967 264.905 82.1047 264.905 81.87V80.014C264.905 79.47 264.265 79.198 262.985 79.198C262.164 79.198 261.188 79.2833 260.057 79.454V78.35C260.975 78.254 261.945 78.206 262.969 78.206C264.121 78.206 264.975 78.334 265.529 78.59C266.084 78.8353 266.361 79.2833 266.361 79.934V81.934C266.361 82.286 266.223 82.5687 265.945 82.782C265.668 82.9847 265.332 83.118 264.937 83.182V83.246C265.183 83.2887 265.391 83.3367 265.561 83.39C265.732 83.4327 265.908 83.502 266.089 83.598C266.281 83.694 266.425 83.8273 266.521 83.998C266.617 84.1687 266.665 84.3713 266.665 84.606ZM272.986 84.75H268.538V83.598H272.986V84.75ZM281.015 79.454H277.511V88.75H275.943V79.454H272.423V78.366H281.015V79.454ZM288.037 88.75H286.597V87.806C286.448 88.542 285.6 88.91 284.053 88.91C283.029 88.91 282.325 88.7287 281.941 88.366C281.557 87.9927 281.365 87.4327 281.365 86.686V81.006H282.805V86.606C282.805 86.798 282.821 86.958 282.853 87.086C282.885 87.214 282.949 87.3473 283.045 87.486C283.152 87.614 283.323 87.7153 283.557 87.79C283.803 87.854 284.107 87.886 284.469 87.886C285.269 87.886 285.824 87.8113 286.133 87.662C286.443 87.5127 286.597 87.2407 286.597 86.846V81.006H288.037V88.75ZM294.713 82.078H293.913C293.252 82.078 292.761 82.1633 292.441 82.334C292.132 82.5047 291.977 82.8247 291.977 83.294V88.75H290.537V81.006H291.897V82.27C291.897 81.8967 292.126 81.566 292.585 81.278C293.054 80.99 293.529 80.846 294.009 80.846H294.713V82.078ZM303.202 83.038V86.222C303.202 86.6913 303.133 87.0967 302.994 87.438C302.856 87.7793 302.68 88.046 302.466 88.238C302.264 88.4193 301.992 88.5633 301.65 88.67C301.309 88.7767 300.989 88.8407 300.69 88.862C300.392 88.894 300.029 88.91 299.602 88.91C299.048 88.91 298.594 88.8833 298.242 88.83C297.89 88.7767 297.538 88.6647 297.186 88.494C296.834 88.3233 296.573 88.0513 296.402 87.678C296.232 87.294 296.146 86.8087 296.146 86.222V77.55H297.586V79.87C297.586 80.0727 297.581 80.382 297.57 80.798C297.57 81.2033 297.57 81.5073 297.57 81.71C297.613 81.4647 297.832 81.262 298.226 81.102C298.632 80.9313 299.224 80.846 300.002 80.846C302.136 80.846 303.202 81.5767 303.202 83.038ZM301.73 86.43V83.39C301.73 82.7287 301.576 82.3127 301.266 82.142C300.957 81.9607 300.408 81.87 299.618 81.87C298.861 81.87 298.333 81.9713 298.034 82.174C297.736 82.3767 297.586 82.782 297.586 83.39V86.43C297.586 87.0807 297.73 87.502 298.018 87.694C298.317 87.8753 298.856 87.966 299.634 87.966C300.424 87.966 300.968 87.8753 301.266 87.694C301.576 87.502 301.73 87.0807 301.73 86.43ZM312.26 83.614V86.302C312.26 86.782 312.201 87.1873 312.084 87.518C311.967 87.8487 311.817 88.1047 311.636 88.286C311.455 88.4673 311.193 88.606 310.852 88.702C310.521 88.798 310.201 88.8567 309.892 88.878C309.593 88.8993 309.193 88.91 308.692 88.91C308.052 88.91 307.551 88.8887 307.188 88.846C306.836 88.8033 306.479 88.702 306.116 88.542C305.764 88.3713 305.508 88.1047 305.348 87.742C305.199 87.3793 305.124 86.8993 305.124 86.302V83.614C305.124 83.102 305.183 82.67 305.3 82.318C305.428 81.966 305.577 81.694 305.748 81.502C305.929 81.31 306.191 81.166 306.532 81.07C306.873 80.9633 307.188 80.8993 307.476 80.878C307.775 80.8567 308.18 80.846 308.692 80.846C309.204 80.846 309.604 80.8567 309.892 80.878C310.191 80.8993 310.511 80.9633 310.852 81.07C311.193 81.166 311.449 81.31 311.62 81.502C311.801 81.694 311.951 81.966 312.068 82.318C312.196 82.67 312.26 83.102 312.26 83.614ZM310.788 86.51V83.374C310.788 82.6593 310.644 82.2167 310.356 82.046C310.068 81.8753 309.513 81.79 308.692 81.79C307.871 81.79 307.316 81.8753 307.028 82.046C306.74 82.2167 306.596 82.6593 306.596 83.374V86.51C306.596 86.8513 306.633 87.1233 306.708 87.326C306.783 87.5287 306.921 87.678 307.124 87.774C307.327 87.8593 307.535 87.9127 307.748 87.934C307.961 87.9553 308.276 87.966 308.692 87.966C309.108 87.966 309.423 87.9553 309.636 87.934C309.849 87.9127 310.057 87.8593 310.26 87.774C310.463 87.678 310.601 87.5287 310.676 87.326C310.751 87.1233 310.788 86.8513 310.788 86.51Z" fill="#333333"/>
<rect y="125" width="450" height="115" rx="4" fill="#F4F4F4"/>
<path d="M149.687 153.566H146.105V163.25H143.297V153.566H139.697V151.568H149.687V153.566ZM160.392 153.566H156.81V163.25H154.002V153.566H150.402V151.568H160.392V153.566ZM170.971 159.146V159.92C170.971 160.616 170.845 161.204 170.593 161.684C170.341 162.152 169.969 162.512 169.477 162.764C168.985 163.004 168.445 163.172 167.857 163.268C167.281 163.376 166.591 163.43 165.787 163.43C164.671 163.43 163.291 163.322 161.647 163.106V160.964C163.639 161.276 165.031 161.432 165.823 161.432C167.383 161.432 168.163 161.03 168.163 160.226V159.47C168.163 159.122 168.061 158.84 167.857 158.624C167.653 158.396 167.245 158.282 166.633 158.282H165.265C162.697 158.282 161.413 157.262 161.413 155.222V154.358C161.413 153.35 161.833 152.606 162.673 152.126C163.525 151.634 164.881 151.388 166.741 151.388C167.641 151.388 168.859 151.466 170.395 151.622V153.71C168.571 153.494 167.323 153.386 166.651 153.386C165.727 153.386 165.091 153.464 164.743 153.62C164.395 153.776 164.221 154.04 164.221 154.412V155.24C164.221 155.852 164.737 156.158 165.769 156.158H167.173C168.541 156.158 169.513 156.41 170.089 156.914C170.677 157.418 170.971 158.162 170.971 159.146Z" fill="#2A2D31"/>
<g clip-path="url(#clip3_0_1)">
<path d="M216.175 142.25H196.825C194.16 142.25 192 144.41 192 147.075V166.425C192 169.09 194.16 171.25 196.825 171.25H216.175C218.84 171.25 221 169.09 221 166.425V147.075C221 144.41 218.84 142.25 216.175 142.25Z" fill="#6E6E6F"/>
<path d="M202 152.455V151.637C202 151.084 202.448 150.637 203 150.637H209C209.552 150.637 210 151.084 210 151.637V152.455" stroke="white" stroke-width="1.5" stroke-linecap="round"/>
<path d="M206 151L206 159" stroke="white" stroke-width="1.5" stroke-linecap="round"/>
<path d="M204.5 159L207.5 159" stroke="white" stroke-width="1.5" stroke-linecap="round"/>
<path d="M201 161.5H211" stroke="white" stroke-width="1.5" stroke-linecap="round"/>
<path d="M201 164H211" stroke="white" stroke-width="1.5" stroke-linecap="round"/>
<rect x="198" y="147" width="16" height="20" rx="1" stroke="white" stroke-width="1.5" stroke-linecap="round"/>
</g>
<path d="M245 156.75L240 153.863L240 159.637L245 156.75ZM240.5 156.25L225 156.25L225 157.25L240.5 157.25L240.5 156.25Z" fill="#A4A4A4"/>
<g clip-path="url(#clip4_0_1)">
<path d="M273.175 142.25H253.825C251.16 142.25 249 144.41 249 147.075V166.425C249 169.09 251.16 171.25 253.825 171.25H273.175C275.84 171.25 278 169.09 278 166.425V147.075C278 144.41 275.84 142.25 273.175 142.25Z" fill="#6E6E6F"/>
<path d="M254.5 155.25V158.25" stroke="white" stroke-width="1.5" stroke-linecap="round" stroke-linejoin="round"/>
<path d="M258.1 152.75V160.75" stroke="white" stroke-width="1.5" stroke-linecap="round" stroke-linejoin="round"/>
<path d="M261.7 147.75V165.75" stroke="white" stroke-width="1.5" stroke-linecap="round" stroke-linejoin="round"/>
<path d="M265.3 152.75V160.75" stroke="white" stroke-width="1.5" stroke-linecap="round" stroke-linejoin="round"/>
<path d="M268.9 149.75L268.9 163.75" stroke="white" stroke-width="1.5" stroke-linecap="round" stroke-linejoin="round"/>
<path d="M272.5 155.25V158.25" stroke="white" stroke-width="1.5" stroke-linecap="round" stroke-linejoin="round"/>
</g>
<g clip-path="url(#clip5_0_1)">
<path d="M306.175 142.25H286.825C284.16 142.25 282 144.41 282 147.075V166.425C282 169.09 284.16 171.25 286.825 171.25H306.175C308.84 171.25 311 169.09 311 166.425V147.075C311 144.41 308.84 142.25 306.175 142.25Z" fill="#6E6E6F"/>
<path d="M299.657 150.25C299.657 148.317 298.09 146.75 296.157 146.75C294.224 146.75 292.657 148.317 292.657 150.25V155.75C292.657 157.683 294.224 159.25 296.157 159.25C298.09 159.25 299.657 157.683 299.657 155.75V150.25Z" stroke="white" stroke-width="1.5" stroke-linejoin="round"/>
<path d="M288.657 155.25C288.657 159.392 292.015 162.75 296.157 162.75M296.157 162.75C300.299 162.75 303.657 159.392 303.657 155.25M296.157 162.75V165.75" stroke="white" stroke-width="1.5" stroke-linecap="round" stroke-linejoin="round"/>
<path d="M293.157 166L299.157 166" stroke="white" stroke-width="1.5" stroke-linecap="round"/>
</g>
<rect x="10.5" y="187" width="429" height="42.5" rx="3.5" fill="white"/>
<rect x="10.5" y="187" width="429" height="42.5" rx="3.5" stroke="#ECECEC"/>
<path d="M176.374 213.606C175.446 213.809 174.476 213.91 173.462 213.91C170.55 213.91 169.094 212.971 169.094 211.094V206.166C169.094 204.182 170.55 203.19 173.462 203.19C174.433 203.19 175.382 203.291 176.31 203.494V204.646C175.286 204.39 174.348 204.262 173.494 204.262C173.089 204.262 172.732 204.289 172.422 204.342C172.113 204.385 171.809 204.47 171.51 204.598C171.212 204.715 170.982 204.907 170.822 205.174C170.662 205.43 170.582 205.755 170.582 206.15V211.014C170.582 212.209 171.574 212.806 173.558 212.806C174.412 212.806 175.35 212.678 176.374 212.422V213.606ZM185.198 208.614V211.302C185.198 211.782 185.139 212.187 185.022 212.518C184.904 212.849 184.755 213.105 184.574 213.286C184.392 213.467 184.131 213.606 183.79 213.702C183.459 213.798 183.139 213.857 182.83 213.878C182.531 213.899 182.131 213.91 181.63 213.91C180.99 213.91 180.488 213.889 180.126 213.846C179.774 213.803 179.416 213.702 179.054 213.542C178.702 213.371 178.446 213.105 178.286 212.742C178.136 212.379 178.062 211.899 178.062 211.302V208.614C178.062 208.102 178.12 207.67 178.238 207.318C178.366 206.966 178.515 206.694 178.686 206.502C178.867 206.31 179.128 206.166 179.47 206.07C179.811 205.963 180.126 205.899 180.414 205.878C180.712 205.857 181.118 205.846 181.63 205.846C182.142 205.846 182.542 205.857 182.83 205.878C183.128 205.899 183.448 205.963 183.79 206.07C184.131 206.166 184.387 206.31 184.558 206.502C184.739 206.694 184.888 206.966 185.006 207.318C185.134 207.67 185.198 208.102 185.198 208.614ZM183.726 211.51V208.374C183.726 207.659 183.582 207.217 183.294 207.046C183.006 206.875 182.451 206.79 181.63 206.79C180.808 206.79 180.254 206.875 179.966 207.046C179.678 207.217 179.534 207.659 179.534 208.374V211.51C179.534 211.851 179.571 212.123 179.646 212.326C179.72 212.529 179.859 212.678 180.062 212.774C180.264 212.859 180.472 212.913 180.686 212.934C180.899 212.955 181.214 212.966 181.63 212.966C182.046 212.966 182.36 212.955 182.574 212.934C182.787 212.913 182.995 212.859 183.198 212.774C183.4 212.678 183.539 212.529 183.614 212.326C183.688 212.123 183.726 211.851 183.726 211.51ZM194.499 217.078H193.059V213.254C192.846 213.691 192.067 213.91 190.723 213.91C190.265 213.91 189.886 213.894 189.587 213.862C189.299 213.841 189.006 213.777 188.707 213.67C188.409 213.563 188.174 213.414 188.003 213.222C187.843 213.03 187.71 212.769 187.603 212.438C187.497 212.107 187.443 211.702 187.443 211.222V208.358C187.443 207.473 187.721 206.833 188.275 206.438C188.83 206.043 189.763 205.846 191.075 205.846C192.323 205.846 193.203 206.043 193.715 206.438C194.238 206.822 194.499 207.462 194.499 208.358V217.078ZM193.059 211.382V208.55C193.059 207.825 192.915 207.366 192.627 207.174C192.35 206.982 191.817 206.886 191.027 206.886C190.078 206.886 189.486 206.982 189.251 207.174C189.027 207.366 188.915 207.825 188.915 208.55V211.382C188.915 212.033 189.065 212.454 189.363 212.646C189.673 212.827 190.222 212.918 191.011 212.918C191.822 212.918 192.366 212.822 192.643 212.63C192.921 212.427 193.059 212.011 193.059 211.382ZM203.381 213.75H201.941V212.806C201.792 213.542 200.944 213.91 199.397 213.91C198.373 213.91 197.669 213.729 197.285 213.366C196.901 212.993 196.709 212.433 196.709 211.686V206.006H198.149V211.606C198.149 211.798 198.165 211.958 198.197 212.086C198.229 212.214 198.293 212.347 198.389 212.486C198.496 212.614 198.666 212.715 198.901 212.79C199.146 212.854 199.45 212.886 199.813 212.886C200.613 212.886 201.168 212.811 201.477 212.662C201.786 212.513 201.941 212.241 201.941 211.846V206.006H203.381V213.75ZM207.321 204.71H205.881V203.206H207.321V204.71ZM207.321 213.75H205.881V206.006H207.321V213.75ZM215.146 203.19L209.962 213.91H208.73L213.914 203.19H215.146ZM228.528 213.75H226.752L223.824 209.526L220.896 213.75H219.12L222.944 208.454L219.28 203.366H221.056L223.824 207.382L226.592 203.366H228.368L224.704 208.454L228.528 213.75ZM237.624 204.454H234.12V213.75H232.552V204.454H229.032V203.366H237.624V204.454ZM246.984 204.454H243.48V213.75H241.912V204.454H238.392V203.366H246.984V204.454ZM255.591 210.23V210.982C255.591 212.091 255.277 212.859 254.647 213.286C254.018 213.702 253.037 213.91 251.703 213.91C250.85 213.91 249.794 213.825 248.535 213.654V212.358C249.794 212.625 250.882 212.758 251.799 212.758C252.535 212.758 253.095 212.678 253.479 212.518C253.874 212.347 254.071 212.011 254.071 211.51V210.166C254.071 209.729 253.943 209.419 253.687 209.238C253.442 209.046 252.994 208.95 252.343 208.95H251.127C250.082 208.95 249.351 208.742 248.935 208.326C248.53 207.899 248.327 207.275 248.327 206.454V205.622C248.327 204.801 248.615 204.193 249.191 203.798C249.778 203.403 250.85 203.206 252.407 203.206C253.154 203.206 254.045 203.265 255.079 203.382V204.55C253.895 204.369 252.967 204.278 252.295 204.278C251.303 204.278 250.642 204.379 250.311 204.582C249.991 204.774 249.831 205.105 249.831 205.574V206.758C249.831 207.121 249.959 207.387 250.215 207.558C250.471 207.718 250.925 207.798 251.575 207.798H252.823C253.901 207.798 254.631 207.995 255.015 208.39C255.399 208.774 255.591 209.387 255.591 210.23ZM261.565 209.75H257.117V208.598H261.565V209.75ZM272.403 203.366L268.275 213.75H266.483L262.451 203.366H264.067L267.395 212.278H267.539L270.867 203.366H272.403ZM280.776 213.75H273.8V211.894C273.8 211.585 273.854 211.302 273.96 211.046C274.067 210.779 274.19 210.561 274.328 210.39C274.478 210.219 274.691 210.049 274.968 209.878C275.246 209.697 275.475 209.558 275.656 209.462C275.848 209.366 276.12 209.243 276.472 209.094L278.2 208.326C278.883 208.017 279.224 207.553 279.224 206.934V205.51C279.224 205.009 279.064 204.678 278.744 204.518C278.435 204.358 277.923 204.278 277.208 204.278C276.472 204.278 275.459 204.39 274.168 204.614V203.494C275.278 203.291 276.392 203.19 277.512 203.19C278.654 203.19 279.48 203.361 279.992 203.702C280.515 204.043 280.776 204.625 280.776 205.446V207.142C280.776 207.718 280.627 208.155 280.328 208.454C280.03 208.753 279.496 209.078 278.728 209.43L276.328 210.534C275.624 210.854 275.272 211.323 275.272 211.942V212.63H280.776V213.75Z" fill="#333333"/>
<defs>
<clipPath id="clip0_0_1">
<rect width="29" height="29" fill="white" transform="translate(193.5 17.25)"/>
</clipPath>
<clipPath id="clip1_0_1">
<rect width="29" height="29" fill="white" transform="translate(226.5 17.25)"/>
</clipPath>
<clipPath id="clip2_0_1">
<rect width="29" height="29" fill="white" transform="translate(283.5 17.25)"/>
</clipPath>
<clipPath id="clip3_0_1">
<rect width="29" height="29" fill="white" transform="translate(192 142.25)"/>
</clipPath>
<clipPath id="clip4_0_1">
<rect width="29" height="29" fill="white" transform="translate(249 142.25)"/>
</clipPath>
<clipPath id="clip5_0_1">
<rect width="29" height="29" fill="white" transform="translate(282 142.25)"/>
</clipPath>
</defs>
</svg>
