<svg width="178" height="47" viewBox="0 0 178 47" fill="none" xmlns="http://www.w3.org/2000/svg">
<g style="mix-blend-mode:luminosity" opacity="0.5">
<path d="M56.3594 30.8054C59.011 29.7209 61.0119 26.5736 61.0119 21.8607V12.7367H64.5908V21.8607C64.5908 26.3697 66.4453 29.2562 68.9912 30.52V33.5858C66.5185 32.8683 64.1027 30.7727 62.842 28.4326C61.687 30.9114 59.1655 33.1781 56.3594 33.8712V30.8054ZM70.4796 22.8718H66.7788V19.7245H70.4796V12.484H73.7738V34.8578H70.4796V22.8718ZM75.8235 12.3535H79.1177V35.3714H75.8235V12.3535Z" fill="#202632"/>
<path d="M82.4609 12.6047H96.3453V14.4066H99.5338V12.3438H103.031V25.1858H99.5338V22.1445H96.3453V23.9465H82.4609V12.6047ZM89.4804 35.3698C85.7795 35.3698 83.4858 33.5108 83.4858 30.551C83.4858 27.5912 85.7714 25.7321 89.4804 25.7321H97.5573C101.258 25.7321 103.552 27.5912 103.552 30.551C103.552 33.5108 101.266 35.3698 97.5573 35.3698H89.4804ZM92.8478 21.1661V15.3932H85.9585V21.1661H92.8478ZM97.3295 32.5894C99.0051 32.5894 100.054 31.7904 100.054 30.551C100.054 29.3116 98.9969 28.5126 97.3295 28.5126H89.7163C88.0407 28.5126 86.9915 29.3116 86.9915 30.551C86.9915 31.7904 88.0489 32.5894 89.7163 32.5894H97.3295ZM99.5338 19.307V17.2441H96.3453V19.307H99.5338Z" fill="#202632"/>
<path d="M106.252 31.5301H115.866V26.5319H119.518V31.5301H129.133V34.4981H106.244V31.5301H106.252ZM107.407 24.2325C112.035 23.5639 115.891 20.3432 115.891 15.8831V12.3281H119.494V15.8831C119.494 20.3432 123.35 23.5639 127.978 24.2325V27.0456C123.968 26.5808 120.007 24.5995 117.688 21.5255C115.346 24.5913 111.417 26.5808 107.399 27.0456V24.2325H107.407Z" fill="#202632"/>
<path d="M130.678 31.2688H153.566V34.2368H130.678V31.2688ZM131.833 23.9794H135.355V15.7849H132.085V12.8496H152.143V15.7849H148.873V23.9794H152.395V26.9148H131.825V23.9794H131.833ZM145.392 23.9794V15.7849H138.86V23.9794H145.392Z" fill="#202632"/>
<path d="M155.111 31.5301H178V34.4981H155.111V31.5301ZM157.039 12.8418H176.194V15.7771H160.537V18.9H175.991V21.7864H160.537V25.1376H176.585V28.0729H157.039V12.8418Z" fill="#202632"/>
<path d="M42.5801 11.0238C42.5313 10.9504 42.4906 10.8771 42.4418 10.8037C42.4418 10.8037 42.4418 10.7955 42.4337 10.7874C42.3849 10.714 42.3361 10.6406 42.2954 10.5591C42.2385 10.4612 42.1734 10.3715 42.1083 10.2737C37.9845 4.07686 30.9569 0 22.9777 0C14.9984 0 8.58897 3.72625 4.4082 9.46646C7.23876 5.8299 11.6635 3.48163 16.6252 3.48163C18.8376 3.48163 20.9361 3.9464 22.8394 4.78623C22.88 4.80254 22.9207 4.827 22.9614 4.8433C28.0613 7.1345 31.6971 12.1164 32.0631 17.9871C32.0631 18.0197 32.0631 18.0605 32.0631 18.0931C32.0794 18.3948 32.0875 18.6965 32.0875 18.9981C32.0875 21.8356 31.3229 24.5019 29.989 26.7931C29.989 26.8094 29.9727 26.8176 29.9646 26.8339C29.8832 26.9806 29.8019 27.1192 29.7124 27.266C29.6636 27.3475 29.6067 27.4291 29.5579 27.5106C29.501 27.5922 29.444 27.6737 29.3871 27.7471C27.7847 30.0953 25.5561 31.9789 22.937 33.153C22.9777 33.1693 23.0183 33.1938 23.059 33.2101C24.9623 34.0499 27.069 34.5147 29.2732 34.5147C32.6813 34.5147 35.8372 33.4058 38.3993 31.5304C38.44 31.5059 38.4725 31.4733 38.5132 31.4489C42.3035 28.6195 44.7518 24.0942 44.7518 18.9981C44.7518 16.0873 43.9466 13.3558 42.5476 11.0157L42.5801 11.0238Z" fill="url(#paint0_linear_1468_15654)"/>
<path d="M42.5811 11.0234C43.9801 13.3554 44.7853 16.0869 44.7853 19.0059C44.7853 24.102 42.3289 28.6273 38.5467 31.4566C38.506 31.4811 38.4735 31.5137 38.4328 31.5382C35.8788 33.4135 32.7229 34.5224 29.3067 34.5224C27.0943 34.5224 24.9877 34.0577 23.0925 33.2178C23.0518 33.2015 23.0111 33.1852 22.9705 33.1608C20.7581 32.166 18.8222 30.6657 17.3094 28.8067C17.0409 28.4724 16.7807 28.1299 16.5366 27.7793C16.5122 27.7385 16.4797 27.7059 16.4553 27.6652C16.2926 27.4369 16.1462 27.2004 16.0079 26.9639C15.9754 26.9069 15.9429 26.8579 15.9185 26.8009C15.9185 26.8009 15.9185 26.7927 15.9103 26.7846C15.8127 26.6133 15.7151 26.4421 15.6175 26.2627C14.4788 24.102 13.8281 21.6314 13.8281 19.0222C13.8281 18.7205 13.8362 18.4107 13.8525 18.1172C13.8525 18.0927 13.8525 18.0601 13.8525 18.0356C13.8118 18.0601 13.7712 18.0927 13.7386 18.1172C9.94827 20.9465 7.5 25.4718 7.5 30.5679C7.5 30.8696 7.5 31.1794 7.5244 31.4729C7.5244 31.5056 7.5244 31.5463 7.5244 31.5789C8.03683 39.5288 14.5195 45.8479 22.5231 46.0762C22.6695 46.0762 22.8241 46.0762 22.9705 46.0762C23.1169 46.0762 23.2714 46.0762 23.4178 46.0762C35.9032 45.8398 45.9403 35.6232 45.9403 23.0502C45.9403 18.6472 44.7121 14.5377 42.5648 11.0397L42.5811 11.0234Z" fill="url(#paint1_linear_1468_15654)"/>
<path d="M22.9617 4.84409C22.9617 4.84409 22.8804 4.80332 22.8397 4.78702C20.9364 3.94718 18.8379 3.48242 16.6255 3.48242C11.6639 3.48242 7.24721 5.82254 4.40852 9.46725C4.1401 9.83416 3.88795 10.2092 3.64394 10.5843C3.34299 11.0572 3.05831 11.5383 2.78989 12.0275C2.78989 12.0275 2.78989 12.0357 2.78989 12.0438C1.00859 15.3053 0 19.056 0 23.035C0 35.608 10.0452 45.8246 22.5306 46.0611C14.527 45.8328 8.04432 39.5137 7.53189 31.5638C7.53189 31.5312 7.53189 31.4904 7.53189 31.4578C7.51563 31.1561 7.50749 30.8544 7.50749 30.5527C7.50749 25.4567 9.9639 20.9232 13.7461 18.102C13.7868 18.0776 13.8193 18.0449 13.86 18.0205C16.3977 16.1614 19.513 15.0607 22.8885 15.0444H22.9048C22.9048 15.0444 22.9454 15.0444 22.9617 15.0444H23.0512C26.4186 15.0607 29.5338 16.1533 32.0634 18.0042C31.6893 12.1335 28.0535 7.15159 22.9617 4.8604V4.84409Z" fill="url(#paint2_linear_1468_15654)"/>
</g>
<defs>
<linearGradient id="paint0_linear_1468_15654" x1="21.8227" y1="29.174" x2="27.1182" y2="2.20639" gradientUnits="userSpaceOnUse">
<stop stop-color="#244CBC"/>
<stop offset="0.16" stop-color="#2655C3"/>
<stop offset="0.43" stop-color="#2D6ED7"/>
<stop offset="0.78" stop-color="#3897F7"/>
<stop offset="0.85" stop-color="#3BA2FF"/>
</linearGradient>
<linearGradient id="paint1_linear_1468_15654" x1="11.2334" y1="26.6459" x2="49.6101" y2="30.062" gradientUnits="userSpaceOnUse">
<stop stop-color="#244CBC"/>
<stop offset="0.16" stop-color="#2655C3"/>
<stop offset="0.43" stop-color="#2D6ED7"/>
<stop offset="0.78" stop-color="#3897F7"/>
<stop offset="0.85" stop-color="#3BA2FF"/>
</linearGradient>
<linearGradient id="paint2_linear_1468_15654" x1="29.8673" y1="16.2674" x2="-4.30572" y2="39.1346" gradientUnits="userSpaceOnUse">
<stop stop-color="#244CBC"/>
<stop offset="0.16" stop-color="#2655C3"/>
<stop offset="0.43" stop-color="#2D6ED7"/>
<stop offset="0.78" stop-color="#3897F7"/>
<stop offset="0.85" stop-color="#3BA2FF"/>
</linearGradient>
</defs>
</svg>
