<svg width="170" height="92" viewBox="0 0 170 92" fill="none" xmlns="http://www.w3.org/2000/svg">
<g clip-path="url(#clip0_1308_15278)">
<path d="M53.8281 77.4212C56.3607 76.3855 58.2718 73.3794 58.2718 68.8782V60.1639H61.6899V68.8782C61.6899 73.1848 63.4612 75.9416 65.8927 77.1486V80.0768C63.5311 79.3915 61.2238 77.3901 60.0197 75.155C58.9166 77.5225 56.5083 79.6874 53.8281 80.3494V77.4212ZM67.3144 69.8439H63.7797V66.8379H67.3144V59.9225H70.4607V81.2917H67.3144V69.8439ZM72.4184 59.7979H75.5646V81.7823H72.4184V59.7979Z" fill="#202632"/>
<path d="M78.7578 60.0392H92.0188V61.7603H95.0641V59.79H98.4046V72.0555H95.0641V69.1507H92.0188V70.8718H78.7578V60.0392ZM85.4621 81.7823C81.9274 81.7823 79.7367 80.0067 79.7367 77.1798C79.7367 74.3529 81.9196 72.5773 85.4621 72.5773H93.1763C96.711 72.5773 98.9018 74.3529 98.9018 77.1798C98.9018 80.0067 96.7188 81.7823 93.1763 81.7823H85.4621ZM88.6783 68.2162V62.7026H82.0983V68.2162H88.6783ZM92.9588 79.1267C94.5591 79.1267 95.5613 78.3635 95.5613 77.1798C95.5613 75.9961 94.5514 75.2329 92.9588 75.2329H85.6874C84.0871 75.2329 83.0849 75.9961 83.0849 77.1798C83.0849 78.3635 84.0948 79.1267 85.6874 79.1267H92.9588ZM95.0641 66.4407V64.4704H92.0188V66.4407H95.0641Z" fill="#202632"/>
<path d="M101.48 78.1142H110.663V73.3404H114.151V78.1142H123.333V80.9489H101.473V78.1142H101.48ZM102.584 71.1443C107.004 70.5057 110.686 67.4296 110.686 63.1698V59.7744H114.128V63.1698C114.128 67.4296 117.81 70.5057 122.23 71.1443V73.8311C118.4 73.3872 114.617 71.4948 112.403 68.5588C110.166 71.487 106.413 73.3872 102.576 73.8311V71.1443H102.584Z" fill="#202632"/>
<path d="M124.811 77.8647H146.671V80.6994H124.811V77.8647ZM125.914 70.9025H129.277V63.076H126.155V60.2725H145.312V63.076H142.189V70.9025H145.553V73.7061H125.906V70.9025H125.914ZM138.864 70.9025V63.076H132.626V70.9025H138.864Z" fill="#202632"/>
<path d="M148.146 78.1139H170.007V80.9485H148.146V78.1139ZM149.988 60.2646H168.283V63.0682H153.328V66.0508H168.088V68.8077H153.328V72.0084H168.656V74.8119H149.988V60.2646Z" fill="#202632"/>
<path d="M40.6689 58.5289C40.6223 58.4588 40.5835 58.3887 40.5369 58.3186C40.5369 58.3186 40.5369 58.3108 40.5291 58.303C40.4825 58.2329 40.4359 58.1628 40.397 58.085C40.3426 57.9915 40.2805 57.9058 40.2183 57.8124C36.2797 51.8938 29.5676 48 21.9466 48C14.3256 48 8.20399 51.5589 4.21094 57.0414C6.91441 53.5681 11.1405 51.3253 15.8794 51.3253C17.9924 51.3253 19.9967 51.7692 21.8146 52.5713C21.8534 52.5869 21.8922 52.6103 21.9311 52.6258C26.802 54.8142 30.2745 59.5724 30.6241 65.1795C30.6241 65.2106 30.6241 65.2496 30.6241 65.2807C30.6397 65.5689 30.6474 65.857 30.6474 66.1451C30.6474 68.8552 29.9172 71.4018 28.6431 73.5901C28.6431 73.6057 28.6276 73.6135 28.6198 73.629C28.5422 73.7692 28.4645 73.9016 28.379 74.0418C28.3324 74.1196 28.278 74.1975 28.2314 74.2754C28.177 74.3533 28.1227 74.4312 28.0683 74.5012C26.5379 76.7441 24.4093 78.543 21.9078 79.6644C21.9466 79.68 21.9855 79.7034 22.0243 79.7189C23.8422 80.5211 25.8542 80.965 27.9595 80.965C31.2145 80.965 34.2288 79.9058 36.6759 78.1147C36.7147 78.0913 36.7458 78.0602 36.7846 78.0368C40.4048 75.3345 42.7431 71.0124 42.7431 66.1451C42.7431 63.365 41.974 60.7561 40.6378 58.5211L40.6689 58.5289Z" fill="url(#paint0_linear_1308_15278)"/>
<path d="M40.668 58.5293C42.0042 60.7566 42.7733 63.3654 42.7733 66.1534C42.7733 71.0206 40.4272 75.3427 36.8148 78.045C36.776 78.0684 36.7449 78.0996 36.706 78.1229C34.2667 79.9141 31.2525 80.9732 27.9897 80.9732C25.8766 80.9732 23.8646 80.5293 22.0545 79.7272C22.0156 79.7116 21.9768 79.696 21.938 79.6727C19.8249 78.7226 17.976 77.2897 16.531 75.5141C16.2747 75.1948 16.0261 74.8677 15.793 74.5328C15.7697 74.4939 15.7386 74.4627 15.7153 74.4238C15.56 74.2058 15.4201 73.9799 15.2881 73.7541C15.257 73.6996 15.2259 73.6528 15.2026 73.5983C15.2026 73.5983 15.2026 73.5905 15.1948 73.5827C15.1016 73.4192 15.0084 73.2557 14.9152 73.0843C13.8276 71.0206 13.2061 68.661 13.2061 66.1689C13.2061 65.8808 13.2138 65.5849 13.2294 65.3045C13.2294 65.2812 13.2294 65.25 13.2294 65.2266C13.1905 65.25 13.1517 65.2812 13.1206 65.3045C9.50045 68.0068 7.16211 72.3289 7.16211 77.1962C7.16211 77.4843 7.16211 77.7803 7.18541 78.0606C7.18541 78.0918 7.18541 78.1307 7.18541 78.1619C7.67484 85.7548 13.8664 91.7902 21.5107 92.0082C21.6505 92.0082 21.7981 92.0082 21.938 92.0082C22.0778 92.0082 22.2254 92.0082 22.3652 92.0082C34.29 91.7824 43.8765 82.0245 43.8765 70.016C43.8765 65.8107 42.7034 61.8858 40.6525 58.5449L40.668 58.5293Z" fill="url(#paint1_linear_1308_15278)"/>
<path d="M21.9307 52.6257C21.9307 52.6257 21.853 52.5868 21.8142 52.5712C19.9963 51.7691 17.992 51.3252 15.879 51.3252C11.1402 51.3252 6.92181 53.5602 4.21057 57.0413C3.95421 57.3917 3.71338 57.75 3.48033 58.1082C3.19289 58.5599 2.92099 59.0194 2.66463 59.4866C2.66463 59.4866 2.66463 59.4944 2.66463 59.5022C0.963305 62.6172 0 66.1995 0 69.9999C0 82.0084 9.59421 91.7663 21.519 91.9921C13.8747 91.774 7.68313 85.7386 7.19371 78.1457C7.19371 78.1146 7.19371 78.0756 7.19371 78.0445C7.17818 77.7563 7.17041 77.4682 7.17041 77.1801C7.17041 72.3128 9.51652 67.9829 13.1289 65.2884C13.1678 65.265 13.1988 65.2339 13.2377 65.2105C15.6615 63.4349 18.6368 62.3836 21.8608 62.368H21.8763C21.8763 62.368 21.9152 62.368 21.9307 62.368H22.0162C25.2324 62.3836 28.2077 63.4271 30.6238 65.1949C30.2664 59.5879 26.7939 54.8296 21.9307 52.6413V52.6257Z" fill="url(#paint2_linear_1308_15278)"/>
</g>
<g clip-path="url(#clip1_1308_15278)">
<path d="M53.8281 29.4212C56.3607 28.3855 58.2718 25.3794 58.2718 20.8782V12.1639H61.6899V20.8782C61.6899 25.1848 63.4612 27.9416 65.8927 29.1486V32.0768C63.5311 31.3915 61.2238 29.3901 60.0197 27.155C58.9166 29.5225 56.5083 31.6874 53.8281 32.3494V29.4212ZM67.3144 21.8439H63.7797V18.8379H67.3144V11.9225H70.4607V33.2917H67.3144V21.8439ZM72.4184 11.7979H75.5646V33.7823H72.4184V11.7979Z" fill="white"/>
<path d="M78.7578 12.0392H92.0188V13.7603H95.0641V11.79H98.4046V24.0555H95.0641V21.1507H92.0188V22.8718H78.7578V12.0392ZM85.4621 33.7823C81.9274 33.7823 79.7367 32.0067 79.7367 29.1798C79.7367 26.3529 81.9196 24.5773 85.4621 24.5773H93.1763C96.711 24.5773 98.9018 26.3529 98.9018 29.1798C98.9018 32.0067 96.7188 33.7823 93.1763 33.7823H85.4621ZM88.6783 20.2162V14.7026H82.0983V20.2162H88.6783ZM92.9588 31.1267C94.5591 31.1267 95.5613 30.3635 95.5613 29.1798C95.5613 27.9961 94.5514 27.2329 92.9588 27.2329H85.6874C84.0871 27.2329 83.0849 27.9961 83.0849 29.1798C83.0849 30.3635 84.0948 31.1267 85.6874 31.1267H92.9588ZM95.0641 18.4407V16.4704H92.0188V18.4407H95.0641Z" fill="white"/>
<path d="M101.48 30.1142H110.663V25.3404H114.151V30.1142H123.333V32.9489H101.473V30.1142H101.48ZM102.584 23.1443C107.004 22.5057 110.686 19.4296 110.686 15.1698V11.7744H114.128V15.1698C114.128 19.4296 117.81 22.5057 122.23 23.1443V25.8311C118.4 25.3872 114.617 23.4948 112.403 20.5588C110.166 23.487 106.413 25.3872 102.576 25.8311V23.1443H102.584Z" fill="white"/>
<path d="M124.811 29.8647H146.671V32.6994H124.811V29.8647ZM125.914 22.9025H129.277V15.076H126.155V12.2725H145.312V15.076H142.189V22.9025H145.553V25.7061H125.906V22.9025H125.914ZM138.864 22.9025V15.076H132.626V22.9025H138.864Z" fill="white"/>
<path d="M148.146 30.1139H170.007V32.9485H148.146V30.1139ZM149.988 12.2646H168.283V15.0682H153.328V18.0508H168.088V20.8077H153.328V24.0084H168.656V26.8119H149.988V12.2646Z" fill="white"/>
<path d="M40.6689 10.5289C40.6223 10.4588 40.5835 10.3887 40.5369 10.3186C40.5369 10.3186 40.5369 10.3108 40.5291 10.303C40.4825 10.2329 40.4359 10.1628 40.397 10.085C40.3426 9.9915 40.2805 9.90584 40.2183 9.81239C36.2797 3.89381 29.5676 0 21.9466 0C14.3256 0 8.20399 3.55894 4.21094 9.04142C6.91441 5.56814 11.1405 3.32531 15.8794 3.32531C17.9924 3.32531 19.9967 3.7692 21.8146 4.57133C21.8534 4.5869 21.8922 4.61027 21.9311 4.62584C26.802 6.81416 30.2745 11.5724 30.6241 17.1795C30.6241 17.2106 30.6241 17.2496 30.6241 17.2807C30.6397 17.5689 30.6474 17.857 30.6474 18.1451C30.6474 20.8552 29.9172 23.4018 28.6431 25.5901C28.6431 25.6057 28.6276 25.6135 28.6198 25.629C28.5422 25.7692 28.4645 25.9016 28.379 26.0418C28.3324 26.1196 28.278 26.1975 28.2314 26.2754C28.177 26.3533 28.1227 26.4312 28.0683 26.5012C26.5379 28.7441 24.4093 30.543 21.9078 31.6644C21.9466 31.68 21.9855 31.7034 22.0243 31.7189C23.8422 32.5211 25.8542 32.965 27.9595 32.965C31.2145 32.965 34.2288 31.9058 36.6759 30.1147C36.7147 30.0913 36.7458 30.0602 36.7846 30.0368C40.4048 27.3345 42.7431 23.0124 42.7431 18.1451C42.7431 15.365 41.974 12.7561 40.6378 10.5211L40.6689 10.5289Z" fill="url(#paint3_linear_1308_15278)"/>
<path d="M40.668 10.5293C42.0042 12.7566 42.7733 15.3654 42.7733 18.1534C42.7733 23.0206 40.4272 27.3427 36.8148 30.045C36.776 30.0684 36.7449 30.0996 36.706 30.1229C34.2667 31.9141 31.2525 32.9732 27.9897 32.9732C25.8766 32.9732 23.8646 32.5293 22.0545 31.7272C22.0156 31.7116 21.9768 31.696 21.938 31.6727C19.8249 30.7226 17.976 29.2897 16.531 27.5141C16.2747 27.1948 16.0261 26.8677 15.793 26.5328C15.7697 26.4939 15.7386 26.4627 15.7153 26.4238C15.56 26.2058 15.4201 25.9799 15.2881 25.7541C15.257 25.6996 15.2259 25.6528 15.2026 25.5983C15.2026 25.5983 15.2026 25.5905 15.1948 25.5827C15.1016 25.4192 15.0084 25.2557 14.9152 25.0843C13.8276 23.0206 13.2061 20.661 13.2061 18.1689C13.2061 17.8808 13.2138 17.5849 13.2294 17.3045C13.2294 17.2812 13.2294 17.25 13.2294 17.2266C13.1905 17.25 13.1517 17.2812 13.1206 17.3045C9.50045 20.0068 7.16211 24.3289 7.16211 29.1962C7.16211 29.4843 7.16211 29.7803 7.18541 30.0606C7.18541 30.0918 7.18541 30.1307 7.18541 30.1619C7.67484 37.7548 13.8664 43.7902 21.5107 44.0082C21.6505 44.0082 21.7981 44.0082 21.938 44.0082C22.0778 44.0082 22.2254 44.0082 22.3652 44.0082C34.29 43.7824 43.8765 34.0245 43.8765 22.016C43.8765 17.8107 42.7034 13.8858 40.6525 10.5449L40.668 10.5293Z" fill="url(#paint4_linear_1308_15278)"/>
<path d="M21.9307 4.62573C21.9307 4.62573 21.853 4.58679 21.8142 4.57121C19.9963 3.76909 17.992 3.3252 15.879 3.3252C11.1402 3.3252 6.92181 5.56024 4.21057 9.0413C3.95421 9.39174 3.71338 9.74997 3.48033 10.1082C3.19289 10.5599 2.92099 11.0194 2.66463 11.4866C2.66463 11.4866 2.66463 11.4944 2.66463 11.5022C0.963305 14.6172 0 18.1995 0 21.9999C0 34.0084 9.59421 43.7663 21.519 43.9921C13.8747 43.774 7.68313 37.7386 7.19371 30.1457C7.19371 30.1146 7.19371 30.0756 7.19371 30.0445C7.17818 29.7563 7.17041 29.4682 7.17041 29.1801C7.17041 24.3128 9.51652 19.9829 13.1289 17.2884C13.1678 17.265 13.1988 17.2339 13.2377 17.2105C15.6615 15.4349 18.6368 14.3836 21.8608 14.368H21.8763C21.8763 14.368 21.9152 14.368 21.9307 14.368H22.0162C25.2324 14.3836 28.2077 15.4271 30.6238 17.1949C30.2664 11.5879 26.7939 6.82962 21.9307 4.6413V4.62573Z" fill="url(#paint5_linear_1308_15278)"/>
</g>
<defs>
<linearGradient id="paint0_linear_1308_15278" x1="20.8435" y1="75.8641" x2="25.9013" y2="50.1073" gradientUnits="userSpaceOnUse">
<stop stop-color="#244CBC"/>
<stop offset="0.16" stop-color="#2655C3"/>
<stop offset="0.43" stop-color="#2D6ED7"/>
<stop offset="0.78" stop-color="#3897F7"/>
<stop offset="0.85" stop-color="#3BA2FF"/>
</linearGradient>
<linearGradient id="paint1_linear_1308_15278" x1="10.7279" y1="73.4504" x2="47.3815" y2="76.7131" gradientUnits="userSpaceOnUse">
<stop stop-color="#244CBC"/>
<stop offset="0.16" stop-color="#2655C3"/>
<stop offset="0.43" stop-color="#2D6ED7"/>
<stop offset="0.78" stop-color="#3897F7"/>
<stop offset="0.85" stop-color="#3BA2FF"/>
</linearGradient>
<linearGradient id="paint2_linear_1308_15278" x1="28.5262" y1="63.5362" x2="-4.1124" y2="85.3766" gradientUnits="userSpaceOnUse">
<stop stop-color="#244CBC"/>
<stop offset="0.16" stop-color="#2655C3"/>
<stop offset="0.43" stop-color="#2D6ED7"/>
<stop offset="0.78" stop-color="#3897F7"/>
<stop offset="0.85" stop-color="#3BA2FF"/>
</linearGradient>
<linearGradient id="paint3_linear_1308_15278" x1="20.8435" y1="27.8641" x2="25.9013" y2="2.10732" gradientUnits="userSpaceOnUse">
<stop stop-color="#244CBC"/>
<stop offset="0.16" stop-color="#2655C3"/>
<stop offset="0.43" stop-color="#2D6ED7"/>
<stop offset="0.78" stop-color="#3897F7"/>
<stop offset="0.85" stop-color="#3BA2FF"/>
</linearGradient>
<linearGradient id="paint4_linear_1308_15278" x1="10.7279" y1="25.4504" x2="47.3815" y2="28.7131" gradientUnits="userSpaceOnUse">
<stop stop-color="#244CBC"/>
<stop offset="0.16" stop-color="#2655C3"/>
<stop offset="0.43" stop-color="#2D6ED7"/>
<stop offset="0.78" stop-color="#3897F7"/>
<stop offset="0.85" stop-color="#3BA2FF"/>
</linearGradient>
<linearGradient id="paint5_linear_1308_15278" x1="28.5262" y1="15.5362" x2="-4.1124" y2="37.3766" gradientUnits="userSpaceOnUse">
<stop stop-color="#244CBC"/>
<stop offset="0.16" stop-color="#2655C3"/>
<stop offset="0.43" stop-color="#2D6ED7"/>
<stop offset="0.78" stop-color="#3897F7"/>
<stop offset="0.85" stop-color="#3BA2FF"/>
</linearGradient>
<clipPath id="clip0_1308_15278">
<rect width="170" height="44" fill="white" transform="translate(0 48)"/>
</clipPath>
<clipPath id="clip1_1308_15278">
<rect width="170" height="44" fill="white"/>
</clipPath>
</defs>
</svg>
